inDegrees=yes
name=ik_lifting_orientations
DataType=double
version=3
OpenSimVersion=4.5-2024-01-10-34fd6af
endheader
time	pelvis_tilt	pelvis_list	pelvis_rotation	pelvis_tx	pelvis_ty	pelvis_tz	hip_flexion_r	hip_adduction_r	hip_rotation_r	knee_angle_r	knee_angle_r_beta	ankle_angle_r	subtalar_angle_r	mtp_angle_r	hip_flexion_l	hip_adduction_l	hip_rotation_l	knee_angle_l	knee_angle_l_beta	ankle_angle_l	subtalar_angle_l	mtp_angle_l	lumbar_extension	lumbar_bending	lumbar_rotation	arm_flex_r	arm_add_r	arm_rot_r	elbow_flex_r	pro_sup_r	wrist_flex_r	wrist_dev_r	arm_flex_l	arm_add_l	arm_rot_l	elbow_flex_l	pro_sup_l	wrist_flex_l	wrist_dev_l
0.02	0.0002092130624258068	-0.00251086418191069	-90.46293503835128	0	0.9399999998679526	0	44.81359892712614	-12.5490839999729	0	60.0600375791322	1.048245404627381	-6.23526335383118	0	0	44.81359892712614	-12.5490839999729	0	60.0600375791322	1.048245404627381	-6.23526335383118	0	0	-0.00727017675051599	-0.005698698030633691	-0.0006532080823331423	-0.2336444124611313	-0.05006435631611326	-0.008802770753250526	0.5013078017949399	3.37202495812469	0	0	0	-8.459421188804512	0	86.6817032654574	3.37202495812469	0	0
0.03	0.001995654645804657	0.002522956927503619	-90.47167185497193	0	0.9399999998679526	0	44.81477162666845	-12.51088673896827	0	60.05966178398476	1.048238845764745	-6.213189604776395	0	0	44.81477162666845	-12.51088673896827	0	60.05966178398476	1.048238845764745	-6.213189604776395	0	0	-0.9355440685357409	0.7117173898112763	-4.615009672067272	-0.160098238347662	-0.8716436983023925	4.432384434239185	1.2870160472884	3.355733261157924	0	0	0	-8.484577879579982	0	86.69773422562092	3.355733261157924	0	0
0.04	0.5846951017383462	0.508114187676812	-89.71464832366395	0	0.9399999998679526	0	44.81484548850555	-12.50738085297378	0	60.05964313373941	1.048238520256558	-6.210986851206702	0	0	44.81484548850555	-12.50738085297378	0	60.05964313373941	1.048238520256558	-6.210986851206702	0	0	-1.147424078622058	-0.002879876480918031	-7.218941713582793	0.6471806455327546	0.1209895620164646	6.270080198628599	0.9771593211753087	3.354800564102018	0	0	0	-8.485914122700892	0	86.69865197580064	3.354800564102018	0	0
0.05	0.07177803408753693	1.072522334105065	-89.32835680150504	0	0.9399999998679526	0	44.81599931888432	-12.47008822542467	0	60.05927381997344	1.048232074515369	-6.189497204047161	0	0	44.81599931888432	-12.47008822542467	0	60.05927381997344	1.048232074515369	-6.189497204047161	0	0	-0.6181008071475059	1.492644787186908	-11.93112427832931	0.8808020052509038	-0.7812942462246003	10.62213381717565	0.9736944554817144	3.338753284060481	0	0	0	-8.510710674036154	0	86.71444243402638	3.338753284060481	0	0
0.06	0.2364703121306803	2.336945323250289	-89.05007503582742	0	0.9399999998679526	0	44.81741004620191	-12.42319547924072	0	60.05883523588224	1.04822441977893	-6.16238735587148	0	0	44.81741004620191	-12.42319547924072	0	60.05883523588224	1.04822441977893	-6.16238735587148	0	0	-0.8795573567826197	1.978292160198857	-16.55893588665503	2.596519623572137	-0.9168840107462425	15.02046003083694	0.9663913092617372	3.319299314236221	0	0	0	-8.540569509853709	0	86.73358502416853	3.319299314236221	0	0
0.07000000000000001	0.2428997564524396	2.332699074742032	-89.06098174735699	0	0.9399999998679526	0	44.81746147702205	-12.42081139410162	0	60.05882222485931	1.048224192693741	-6.160900671407276	0	0	44.81746147702205	-12.42081139410162	0	60.05882222485931	1.048224192693741	-6.160900671407276	0	0	-1.756685033992039	2.927694950430039	-19.76195845151828	3.777407187110415	-1.378406103200025	18.29880264705651	0.9911623182873327	3.318647265945947	0	0	0	-8.541506235130974	0	86.73422662392778	3.318647265945947	0	0
0.08	-0.1345131709707739	4.191976589662217	-88.38350790656587	0	0.9399999998679526	0	44.81766035667814	-12.41160977937444	0	60.05877199638312	1.048223316041453	-6.155170208714203	0	0	44.81766035667814	-12.41160977937444	0	60.05877199638312	1.048223316041453	-6.155170208714203	0	0	-0.5842527471043002	4.093297849621106	-22.88824187236911	4.8373740304993	-1.671195342851216	20.84977048255212	0.9678885300851422	3.316126738018808	0	0	0	-8.545125440876509	0	86.73670676227167	3.316126738018808	0	0
0.09	0.634260932608979	4.578990610411051	-89.00494814926486	0	0.9399999998679526	0	44.81780838227223	-12.40477177756656	0	60.05873462519791	1.048222663791226	-6.150915121741592	0	0	44.81780838227223	-12.40477177756656	0	60.05873462519791	1.048222663791226	-6.150915121741592	0	0	-1.77726352858745	4.172700165315597	-25.20530480912833	6.50091048354138	-0.9990588254432442	23.81957992496925	0.8051828313731243	3.314250602508576	0	0	0	-8.547819331534674	0	86.73855283416455	3.314250602508576	0	0
0.1	0.2662132435171906	6.40793803624369	-88.33697143165267	0	0.9399999998679526	0	44.81798710112854	-12.39652746385714	0	60.05868951421007	1.048221876455959	-6.145788416800179	0	0	44.81798710112854	-12.39652746385714	0	60.05868951421007	1.048221876455959	-6.145788416800179	0	0	-0.7182277455788444	6.183332403207875	-27.47845943801719	7.783009228941992	-1.50413229549037	25.60580661410361	0.9803328275812024	3.31198521428441	0	0	0	-8.551072279960966	0	86.74078192139683	3.31198521428441	0	0
0.11	0.2716986302564516	9.408581870002173	-88.7629817440115	0	0.9399999998679526	0	44.8181354772432	-12.38970019416852	0	60.05865204326265	1.048221222464553	-6.141546921605016	0	0	44.8181354772432	-12.38970019416852	0	60.05865204326265	1.048221222464553	-6.141546921605016	0	0	0.6189279334641978	7.840617562334178	-29.0579970432159	9.235912815314201	-2.490827016986613	27.68068611347893	1.938799425624352	3.310103731653171	0	0	0	-8.553774657512072	0	86.7426332549955	3.310103731653171	0	0
0.12	0.6698467914251294	11.62112684808961	-88.75458443960098	0	0.9399999998679526	0	44.81827424439826	-12.38334380899996	0	60.05861694258073	1.048220609842084	-6.137603728889352	0	0	44.81827424439826	-12.38334380899996	0	60.05861694258073	1.048220609842084	-6.137603728889352	0	0	1.194407716752325	8.369123210860678	-30.51544951631431	10.93842236684141	-2.410337600922047	29.80855816982084	2.218987831423618	3.308342636216214	0	0	0	-8.556305650285326	0	86.74436613083543	3.308342636216214	0	0
0.13	0.2320942349225708	13.46358979097717	-88.02467635035354	0	0.9399999998679526	0	44.81843118825536	-12.37615641828463	0	60.05857728827377	1.048219917743865	-6.133146992991596	0	0	44.81843118825536	-12.37615641828463	0	60.05857728827377	1.048219917743865	-6.133146992991596	0	0	2.286138787572371	11.27760966645419	-31.93969386896793	12.88466516383147	-3.374678482346732	31.05104111632803	1.974319414129865	3.306351385116697	0	0	0	-8.559166632894589	0	86.74632547425995	3.306351385116697	0	0
0.14	0.343057434663861	15.42720593262743	-89.63891928536691	0	0.9399999998679526	0	44.81857783317383	-12.36945820985787	0	60.05854020716233	1.04821927055638	-6.128997334143766	0	0	44.81857783317383	-12.36945820985787	0	60.05854020716233	1.04821927055638	-6.128997334143766	0	0	1.55469828508543	11.95339367041964	-31.17034822609892	15.29932002234988	-2.506504232775046	32.2123811738169	1.991759373303277	3.304489919528253	0	0	0	-8.561842095151469	0	86.7481571120798	3.304489919528253	0	0
0.15	0.3786824169427218	17.83151540245579	-88.21243090653576	0	0.9399999998679526	0	44.81876687975733	-12.36084548498599	0	60.05849239596333	1.048218436093538	-6.123667296576929	0	0	44.81876687975733	-12.36084548498599	0	60.05849239596333	1.048218436093538	-6.123667296576929	0	0	3.452637183854301	14.32773849140296	-33.30012938475065	17.4134512483806	-3.892053945815012	33.50475904812758	1.994874265993457	3.302089538240836	0	0	0	-8.565292675328946	0	86.75051903030163	3.302089538240836	0	0
0.16	-0.5585596712547564	19.09984833282344	-88.15827127071815	0	0.9399999998679526	0	44.81890118946554	-12.35474102966471	0	60.05845841884095	1.048217843080882	-6.119893110689145	0	0	44.81890118946554	-12.35474102966471	0	60.05845841884095	1.048217843080882	-6.119893110689145	0	0	3.124493388164726	16.3178416228434	-34.33859576199139	19.18478464938341	-2.931343985867557	35.08623275762388	1.741084204024731	3.300383659539887	0	0	0	-8.567745346727	0	86.75219757459665	3.300383659539887	0	0
0.17	0.4413553203572818	20.83166961264266	-88.64480561187966	0	0.9399999998679526	0	44.81903911371066	-12.34847191815022	0	60.05842355401806	1.04821723457493	-6.116017983901128	0	0	44.81903911371066	-12.34847191815022	0	60.05842355401806	1.04821723457493	-6.116017983901128	0	0	2.956509238098126	17.25270642492731	-34.52306239839474	21.42768964103781	-3.190120371081349	36.69004935959759	1.947029030794041	3.298632171503739	0	0	0	-8.570263199988947	0	86.75392099736661	3.298632171503739	0	0
0.18	1.472591997173295	22.56227836680773	-89.18218460200865	0	0.9399999998679526	0	44.81910911849185	-12.34529060382738	0	60.05840584174896	1.048216925437516	-6.114051195539733	0	0	44.81910911849185	-12.34529060382738	0	60.05840584174896	1.048216925437516	-6.114051195539733	0	0	3.628634581675178	18.00873876383517	-34.30736898236596	23.10911700465824	-3.863808094205251	37.80311141619421	1.444114399562943	3.297742868595083	0	0	0	-8.571542109198298	0	86.75479605047536	3.297742868595083	0	0
0.19	0.5187457905106069	23.79853762034791	-89.12469141184863	0	0.9399999998679526	0	44.81928665061613	-12.337261379244	0	60.05836092534055	1.048216141498301	-6.109097471734789	0	0	44.81928665061613	-12.337261379244	0	60.05836092534055	1.048216141498301	-6.109097471734789	0	0	3.415609490029025	20.90300159016049	-35.75085421750271	25.21883829807344	-3.281002104340828	40.15359721680912	1.21121611556184	3.295486912597046	0	0	0	-8.574786470752061	0	86.75701585813297	3.295486912597046	0	0
0.2	1.287505280719484	26.4014504002157	-90.13324132262416	0	0.9399999998679526	0	44.82158535564695	-12.27004603223386	0	60.05761908217568	1.04820319389254	-6.071833193267029	0	0	44.82158535564695	-12.27004603223386	0	60.05761908217568	1.04820319389254	-6.071833193267029	0	0	5.441716905180062	20.97372076522285	-34.07560884649592	25.89986934597976	-3.333959451236431	38.60116607657995	1.197721239861136	3.263084696553489	0	0	0	-8.625276304862521	0	86.78889958497557	3.263084696553489	0	0
0.21	1.9851943198584	27.55039114613085	-91.43063458890983	0	0.9399999998679526	0	44.82231834092364	-12.24765714824162	0	60.05738445419696	1.048199098861795	-6.059195137242956	0	0	44.82231834092364	-12.24765714824162	0	60.05738445419696	1.048199098861795	-6.059195137242956	0	0	4.846962525024262	22.44607867089194	-34.64871387539938	27.04164849002813	-2.041908892566144	40.62566027276493	0.6389933925309617	3.25280652587711	0	0	0	-8.641241903836235	0	86.79901327862896	3.25280652587711	0	0
0.22	2.658904051036637	28.63942772800733	-92.73105527363046	0	0.9399999998679526	0	44.82249763113779	-12.23973590570784	0	60.05733909541058	1.048198307201627	-6.054343319316943	0	0	44.82249763113779	-12.23973590570784	0	60.05733909541058	1.048198307201627	-6.054343319316943	0	0	4.257789289755137	22.88377774342376	-32.93596444429777	28.52260955809193	-2.179857335248848	40.57855258797997	0.6424213304918328	3.250519090560196	0	0	0	-8.644540529709797	0	86.80126406427222	3.250519090560196	0	0
0.23	2.161416011053969	30.48237598430415	-91.96846545760336	0	0.9399999998679526	0	44.8225933111454	-12.23549917393986	0	60.05731492623524	1.04819788536994	-6.051747057877432	0	0	44.8225933111454	-12.23549917393986	0	60.05731492623524	1.04819788536994	-6.051747057877432	0	0	5.234721388867335	25.05170390799007	-33.38968158076714	30.01543328144284	-2.341564303929539	41.24295142949266	0.4992856097201388	3.249299037659609	0	0	0	-8.646299207425296	0	86.80246456916844	3.249299037659609	0	0
